<mxfile host="app.diagrams.net" agent="Mozilla/5.0 (Windows NT 10.0; Win64; x64) AppleWebKit/537.36 (KHTML, like Gecko) Chrome/128.0.0.0 Safari/537.36" version="24.7.14">
  <diagram name="Página-1" id="5pwruqKV92tOsJ-omsdZ">
    <mxGraphModel dx="1194" dy="750" grid="1" gridSize="10" guides="1" tooltips="1" connect="1" arrows="1" fold="1" page="1" pageScale="1" pageWidth="827" pageHeight="1169" math="0" shadow="0">
      <root>
        <mxCell id="0" />
        <mxCell id="1" parent="0" />
        <mxCell id="fi5kjaB15t_LKdDZMwA9-2" value="ALUNO" style="whiteSpace=wrap;html=1;align=center;" vertex="1" parent="1">
          <mxGeometry x="359" y="40" width="100" height="40" as="geometry" />
        </mxCell>
        <mxCell id="fi5kjaB15t_LKdDZMwA9-3" value="NumMec" style="ellipse;whiteSpace=wrap;html=1;align=center;fontStyle=4;" vertex="1" parent="1">
          <mxGeometry x="199" y="150" width="100" height="40" as="geometry" />
        </mxCell>
        <mxCell id="fi5kjaB15t_LKdDZMwA9-4" value="Nome" style="ellipse;whiteSpace=wrap;html=1;align=center;" vertex="1" parent="1">
          <mxGeometry x="309" y="150" width="100" height="40" as="geometry" />
        </mxCell>
        <mxCell id="fi5kjaB15t_LKdDZMwA9-5" value="Sexo" style="ellipse;whiteSpace=wrap;html=1;align=center;" vertex="1" parent="1">
          <mxGeometry x="419" y="150" width="100" height="40" as="geometry" />
        </mxCell>
        <mxCell id="fi5kjaB15t_LKdDZMwA9-6" value="DataNasc" style="ellipse;whiteSpace=wrap;html=1;align=center;" vertex="1" parent="1">
          <mxGeometry x="529" y="150" width="100" height="40" as="geometry" />
        </mxCell>
        <mxCell id="fi5kjaB15t_LKdDZMwA9-7" value="" style="endArrow=none;html=1;rounded=0;exitX=0.15;exitY=1.025;exitDx=0;exitDy=0;entryX=0.5;entryY=0;entryDx=0;entryDy=0;exitPerimeter=0;" edge="1" parent="1" source="fi5kjaB15t_LKdDZMwA9-2" target="fi5kjaB15t_LKdDZMwA9-3">
          <mxGeometry relative="1" as="geometry">
            <mxPoint x="369" y="220" as="sourcePoint" />
            <mxPoint x="529" y="220" as="targetPoint" />
          </mxGeometry>
        </mxCell>
        <mxCell id="fi5kjaB15t_LKdDZMwA9-8" value="" style="endArrow=none;html=1;rounded=0;entryX=0.5;entryY=0;entryDx=0;entryDy=0;" edge="1" parent="1" source="fi5kjaB15t_LKdDZMwA9-2" target="fi5kjaB15t_LKdDZMwA9-4">
          <mxGeometry relative="1" as="geometry">
            <mxPoint x="409" y="70" as="sourcePoint" />
            <mxPoint x="249" y="160" as="targetPoint" />
          </mxGeometry>
        </mxCell>
        <mxCell id="fi5kjaB15t_LKdDZMwA9-9" value="" style="endArrow=none;html=1;rounded=0;exitX=0.65;exitY=1.025;exitDx=0;exitDy=0;entryX=0.5;entryY=0;entryDx=0;entryDy=0;exitPerimeter=0;" edge="1" parent="1" source="fi5kjaB15t_LKdDZMwA9-2" target="fi5kjaB15t_LKdDZMwA9-5">
          <mxGeometry relative="1" as="geometry">
            <mxPoint x="559" y="220" as="sourcePoint" />
            <mxPoint x="389" y="300" as="targetPoint" />
          </mxGeometry>
        </mxCell>
        <mxCell id="fi5kjaB15t_LKdDZMwA9-10" value="" style="endArrow=none;html=1;rounded=0;exitX=0.85;exitY=1;exitDx=0;exitDy=0;entryX=0.5;entryY=0;entryDx=0;entryDy=0;exitPerimeter=0;" edge="1" parent="1" source="fi5kjaB15t_LKdDZMwA9-2" target="fi5kjaB15t_LKdDZMwA9-6">
          <mxGeometry relative="1" as="geometry">
            <mxPoint x="439" y="100" as="sourcePoint" />
            <mxPoint x="269" y="180" as="targetPoint" />
          </mxGeometry>
        </mxCell>
        <mxCell id="fi5kjaB15t_LKdDZMwA9-11" value="ALUNO" style="whiteSpace=wrap;html=1;align=center;" vertex="1" parent="1">
          <mxGeometry x="304" y="420" width="100" height="40" as="geometry" />
        </mxCell>
        <mxCell id="fi5kjaB15t_LKdDZMwA9-12" value="NumMec" style="ellipse;whiteSpace=wrap;html=1;align=center;fontStyle=4;" vertex="1" parent="1">
          <mxGeometry x="230" y="360" width="100" height="40" as="geometry" />
        </mxCell>
        <mxCell id="fi5kjaB15t_LKdDZMwA9-13" value="Nome" style="ellipse;whiteSpace=wrap;html=1;align=center;" vertex="1" parent="1">
          <mxGeometry x="190" y="420" width="100" height="40" as="geometry" />
        </mxCell>
        <mxCell id="fi5kjaB15t_LKdDZMwA9-14" value="Sexo" style="ellipse;whiteSpace=wrap;html=1;align=center;" vertex="1" parent="1">
          <mxGeometry x="170" y="470" width="100" height="40" as="geometry" />
        </mxCell>
        <mxCell id="fi5kjaB15t_LKdDZMwA9-15" value="DataNasc" style="ellipse;whiteSpace=wrap;html=1;align=center;" vertex="1" parent="1">
          <mxGeometry x="270" y="490" width="100" height="40" as="geometry" />
        </mxCell>
        <mxCell id="fi5kjaB15t_LKdDZMwA9-16" value="" style="endArrow=none;html=1;rounded=0;exitX=0.25;exitY=0;exitDx=0;exitDy=0;entryX=0.5;entryY=1;entryDx=0;entryDy=0;" edge="1" parent="1" source="fi5kjaB15t_LKdDZMwA9-11" target="fi5kjaB15t_LKdDZMwA9-12">
          <mxGeometry relative="1" as="geometry">
            <mxPoint x="314" y="600" as="sourcePoint" />
            <mxPoint x="474" y="600" as="targetPoint" />
          </mxGeometry>
        </mxCell>
        <mxCell id="fi5kjaB15t_LKdDZMwA9-17" value="" style="endArrow=none;html=1;rounded=0;entryX=1;entryY=0.5;entryDx=0;entryDy=0;exitX=0;exitY=0.5;exitDx=0;exitDy=0;" edge="1" parent="1" source="fi5kjaB15t_LKdDZMwA9-11" target="fi5kjaB15t_LKdDZMwA9-13">
          <mxGeometry relative="1" as="geometry">
            <mxPoint x="300" y="440" as="sourcePoint" />
            <mxPoint x="194" y="540" as="targetPoint" />
          </mxGeometry>
        </mxCell>
        <mxCell id="fi5kjaB15t_LKdDZMwA9-18" value="" style="endArrow=none;html=1;rounded=0;exitX=0.25;exitY=1;exitDx=0;exitDy=0;entryX=1;entryY=0;entryDx=0;entryDy=0;" edge="1" parent="1" source="fi5kjaB15t_LKdDZMwA9-11" target="fi5kjaB15t_LKdDZMwA9-14">
          <mxGeometry relative="1" as="geometry">
            <mxPoint x="504" y="600" as="sourcePoint" />
            <mxPoint x="334" y="680" as="targetPoint" />
          </mxGeometry>
        </mxCell>
        <mxCell id="fi5kjaB15t_LKdDZMwA9-19" value="" style="endArrow=none;html=1;rounded=0;exitX=0.5;exitY=1;exitDx=0;exitDy=0;entryX=0.5;entryY=0;entryDx=0;entryDy=0;" edge="1" parent="1" source="fi5kjaB15t_LKdDZMwA9-11" target="fi5kjaB15t_LKdDZMwA9-15">
          <mxGeometry relative="1" as="geometry">
            <mxPoint x="384" y="480" as="sourcePoint" />
            <mxPoint x="214" y="560" as="targetPoint" />
          </mxGeometry>
        </mxCell>
        <mxCell id="fi5kjaB15t_LKdDZMwA9-20" value="Idade" style="ellipse;whiteSpace=wrap;html=1;align=center;dashed=1;" vertex="1" parent="1">
          <mxGeometry x="380" y="490" width="100" height="40" as="geometry" />
        </mxCell>
        <mxCell id="fi5kjaB15t_LKdDZMwA9-21" value="" style="endArrow=none;html=1;rounded=0;dashed=1;dashPattern=1 2;entryX=0.5;entryY=0;entryDx=0;entryDy=0;exitX=0.75;exitY=1;exitDx=0;exitDy=0;" edge="1" parent="1" source="fi5kjaB15t_LKdDZMwA9-11" target="fi5kjaB15t_LKdDZMwA9-20">
          <mxGeometry relative="1" as="geometry">
            <mxPoint x="510" y="470" as="sourcePoint" />
            <mxPoint x="670" y="470" as="targetPoint" />
          </mxGeometry>
        </mxCell>
        <mxCell id="fi5kjaB15t_LKdDZMwA9-22" value="" style="resizable=0;html=1;whiteSpace=wrap;align=right;verticalAlign=bottom;" connectable="0" vertex="1" parent="fi5kjaB15t_LKdDZMwA9-21">
          <mxGeometry x="1" relative="1" as="geometry" />
        </mxCell>
        <mxCell id="fi5kjaB15t_LKdDZMwA9-24" value="Morada" style="ellipse;whiteSpace=wrap;html=1;align=center;" vertex="1" parent="1">
          <mxGeometry x="470" y="420" width="100" height="40" as="geometry" />
        </mxCell>
        <mxCell id="fi5kjaB15t_LKdDZMwA9-25" value="" style="endArrow=none;html=1;rounded=0;exitX=0;exitY=0.5;exitDx=0;exitDy=0;entryX=1;entryY=0.5;entryDx=0;entryDy=0;" edge="1" parent="1" source="fi5kjaB15t_LKdDZMwA9-24" target="fi5kjaB15t_LKdDZMwA9-11">
          <mxGeometry relative="1" as="geometry">
            <mxPoint x="616" y="482" as="sourcePoint" />
            <mxPoint x="542" y="498" as="targetPoint" />
          </mxGeometry>
        </mxCell>
        <mxCell id="fi5kjaB15t_LKdDZMwA9-26" value="NumTelef" style="ellipse;shape=doubleEllipse;margin=3;whiteSpace=wrap;html=1;align=center;" vertex="1" parent="1">
          <mxGeometry x="330" y="340" width="100" height="40" as="geometry" />
        </mxCell>
        <mxCell id="fi5kjaB15t_LKdDZMwA9-27" value="" style="endArrow=none;html=1;rounded=0;exitX=0.5;exitY=1;exitDx=0;exitDy=0;entryX=0.5;entryY=0;entryDx=0;entryDy=0;" edge="1" parent="1" source="fi5kjaB15t_LKdDZMwA9-26" target="fi5kjaB15t_LKdDZMwA9-11">
          <mxGeometry relative="1" as="geometry">
            <mxPoint x="364" y="470" as="sourcePoint" />
            <mxPoint x="330" y="500" as="targetPoint" />
          </mxGeometry>
        </mxCell>
        <mxCell id="fi5kjaB15t_LKdDZMwA9-28" value="Habilitação" style="ellipse;shape=doubleEllipse;margin=3;whiteSpace=wrap;html=1;align=center;" vertex="1" parent="1">
          <mxGeometry x="440" y="350" width="100" height="40" as="geometry" />
        </mxCell>
        <mxCell id="fi5kjaB15t_LKdDZMwA9-29" value="" style="endArrow=none;html=1;rounded=0;exitX=0;exitY=1;exitDx=0;exitDy=0;entryX=1;entryY=0;entryDx=0;entryDy=0;" edge="1" parent="1" source="fi5kjaB15t_LKdDZMwA9-28" target="fi5kjaB15t_LKdDZMwA9-11">
          <mxGeometry relative="1" as="geometry">
            <mxPoint x="390" y="390" as="sourcePoint" />
            <mxPoint x="364" y="430" as="targetPoint" />
          </mxGeometry>
        </mxCell>
      </root>
    </mxGraphModel>
  </diagram>
</mxfile>
